<svg xmlns="http://www.w3.org/2000/svg" width="431.044" height="430.996" viewBox="0 0 431.044 430.996"><g transform="translate(-0.007 0.008)"><path d="M304.76,244.94c3.92,4.16,7.78,8.26,11.64,12.38,1.14,1.22,2.27,2.44,3.35,3.71,6.82,7.92,2.43,15.9-3.53,19.64-4.6,2.89-9.44,2.6-13.77-.72a30.693,30.693,0,0,1-3.04-2.65q-72.87-72.84-145.7-145.72a28.649,28.649,0,0,1-3.31-3.98c-4.07-5.96-1.74-11.91,2.51-15.9,5.23-4.91,11.29-5.28,16.46-.87,4.82,4.12,9.33,8.61,13.97,12.93.89.83,1.78,1.65,3.1,2.87a13.237,13.237,0,0,1,1.37-1.96q49.56-49.62,99.15-99.2C299.03,13.4,313.16,4.9,330.07,1.7c24.41-4.62,46.92.07,67.01,14.86,18.75,13.8,29.75,32.53,33.01,55.44,3.65,25.61-3.07,48.58-20.63,67.71-11.83,12.88-24.53,24.98-36.89,37.37q-33.165,33.225-66.4,66.38c-.45.45-.88.92-1.41,1.47ZM204.61,145.38c27.1,27.1,53.97,53.98,80.93,80.95.37-.33.8-.69,1.2-1.09q49.86-49.86,99.68-99.74c9.13-9.16,15.29-19.98,17.11-33.02,2.65-18.99-2.97-35.42-16.36-48.78-14.03-13.99-31.28-19.32-50.93-15.86-12.14,2.14-22.24,8.29-30.87,16.9q-44.925,44.85-89.79,89.77c-3.62,3.62-7.29,7.21-10.99,10.86Z"/><path d="M87.21,269.4h2.23q75.9,0,151.79-.02c5.16,0,9.37,1.61,12.39,5.99,3.1,4.51,2.87,11.27-.78,15.35-2.31,2.58-4.76,5.03-7.2,7.49q-42.045,42.435-84.09,84.86c-9.85,9.94-21.42,16.88-35.24,19.55a83.942,83.942,0,0,1-14.52,1.31c-10.77.19-21.55.03-32.32.1a7.976,7.976,0,0,0-3.77,1.02q-19.485,11.025-38.9,22.18c-8.14,4.68-16.47,5.06-24.76.74C1.32,422.38-3.23,407.94,2.5,397.02c5.26-10.04,11.09-19.77,16.68-29.63,1.96-3.46,3.81-6.98,5.95-10.32a13.124,13.124,0,0,0,1.98-7.6c-.12-9.81-.05-19.62-.04-29.43.01-13.5,3-26.21,10.51-37.56a75.088,75.088,0,0,1,9.45-11.84q45.495-45.375,91.25-90.49a20.337,20.337,0,0,1,5.6-3.96c6.13-2.86,12.34.81,15.52,5.71,3.14,4.84,2.92,9.71-.69,14.23a62.8,62.8,0,0,1-4.42,4.81q-32.835,33.27-65.71,66.51a12.848,12.848,0,0,1-1.71,1.27l.36.69ZM32.33,398.41c.11.1.21.21.32.31.61-.32,1.23-.63,1.83-.97,11.59-6.57,23.17-13.16,34.79-19.67a7.279,7.279,0,0,1,3.42-.88c13.14-.06,26.29-.03,39.44-.04a44.681,44.681,0,0,0,5.18-.16c9.48-1.12,17.32-5.47,24.01-12.19q33.33-33.45,66.75-66.82c.46-.46.89-.96,1.62-1.75H62.85a3.681,3.681,0,0,0-1.15.02c-.55.19-1.26.39-1.53.82a42.234,42.234,0,0,0-7.05,23.2c.1,12.76.5,25.51.7,38.27a6.292,6.292,0,0,1-.77,3.06c-3.69,6.67-7.46,13.29-11.21,19.93q-4.755,8.43-9.52,16.87Z"/></g></svg>