<svg xmlns="http://www.w3.org/2000/svg" width="377.057" height="430.926" viewBox="0 0 377.057 430.926"><g transform="translate(0.004 -0.002)"><path d="M350.23,404.09h11.6c3.85.01,7.62.52,10.62,3.16,4.22,3.71,5.22,8.51,4,13.8-1.24,5.37-4.79,8.48-10.15,9.47a27.541,27.541,0,0,1-4.97.39q-152.685.03-305.37,0c-19.17,0-34.68-7.56-45.99-23.19A51.417,51.417,0,0,1,.4,381.12c-.34-4.4-.37-8.84-.38-13.26Q-.01,218.445.04,69.04C.05,50.31,5.86,33.57,18.98,19.89A63.568,63.568,0,0,1,46,3.5,79.337,79.337,0,0,1,70.25.01q132.39,0,264.77.03c10.8,0,20.61,3.27,28.76,10.56,7,6.25,10.9,14.32,12.45,23.48a60.2,60.2,0,0,1,.78,9.94q.06,132.09-.02,264.19c-.02,12.36-4.02,23.4-13.83,31.51-3.51,2.9-7.76,4.91-11.72,7.24-.84.5-1.37.86-1.36,1.98q.06,27.135.04,54.26c0,.19.04.38.1.89ZM26.84,330.69a4.108,4.108,0,0,0,.82-.27c8.67-5.39,18.2-7.18,28.28-7.17q139.215.06,278.43.03c.77,0,1.54.03,2.31-.01a15.15,15.15,0,0,0,8.3-2.66c3.98-2.94,5.2-7.18,5.21-11.84q.06-33.57.02-67.15V41.69c0-9.42-5.19-14.83-14.33-14.83q-134.025-.015-268.04.04a40.3,40.3,0,0,0-26.6,9.6C31.37,44.85,26.91,55.94,26.9,68.62q-.15,129.885-.05,259.77v2.31ZM323.2,350.11H55.07a15.356,15.356,0,0,0-2.88.05c-3.25.64-6.68.91-9.68,2.18-15.1,6.39-18.89,23.4-13.42,36.12,4.69,10.9,13.68,15.63,25.33,15.63H323.21V350.11Z"/><path d="M268.74,269.29a12.109,12.109,0,0,1-10.41-6.53c-2.89-5.13-5.48-10.43-8.16-15.67q-7.7-15.045-15.32-30.14a2.375,2.375,0,0,0-2.47-1.57q-43.86.06-87.73,0a2.386,2.386,0,0,0-2.45,1.6q-11.025,21.765-22.15,43.48a26.656,26.656,0,0,1-2.27,3.78c-3.29,4.45-7.67,5.84-13.26,4.3-5.66-1.56-9.57-5.71-10.04-10.84-.3-3.23.76-6.18,2.19-9.03q27.96-55.92,55.92-111.85,11.775-23.535,23.55-47.07c2.55-5.11,6.57-8,12.32-8.03,5.83-.03,9.91,2.89,12.49,8.06q39.72,79.47,79.45,158.95a20.533,20.533,0,0,1,1.95,5.59c1.32,7.6-5.1,14.92-13.6,14.97Zm-80.21-144.9c-10.81,21.63-21.39,42.79-32.02,64.04h64.03c-10.67-21.33-21.22-42.45-32.02-64.04Z"/></g></svg>