<svg xmlns="http://www.w3.org/2000/svg" width="354.19" height="424.766" viewBox="0 0 354.19 424.766"><g transform="translate(-0.007 0)"><path d="M35.21,229.93v4.19q0,85.185-.07,170.36a30.067,30.067,0,0,1-1.74,10.5c-2.88,7.57-11.85,11.36-20.31,9.14C4.74,421.93.42,416.22.02,406.87c-.03-.66,0-1.32,0-1.98Q-.01,212.41.04,19.94a31.808,31.808,0,0,1,.82-7.28C3.1,3.23,10.27-.02,18.03,0,27.49.03,33.8,6.05,34.94,15.07a44.509,44.509,0,0,1,.26,5.66q.015,85.035.01,170.08,0,3.98,3.95,3.98H319V190.6q0-85.035.03-170.08a36.416,36.416,0,0,1,.7-7.59C321.89,3.07,329.49-.04,336.95,0c9.32.05,15.48,5.77,16.75,14.52a42.905,42.905,0,0,1,.48,6.19q.03,192.045.01,384.09c0,6.44-1.14,12.57-6.86,16.54-5.88,4.07-12.33,4.4-18.83,1.59-5.76-2.48-8.42-7.32-9.24-13.3a41.03,41.03,0,0,1-.25-5.66Q319,318.935,319,233.89q0-3.98-3.95-3.98H35.21Z"/></g></svg>