<svg xmlns="http://www.w3.org/2000/svg" width="430.942" height="428.563" viewBox="0 0 430.942 428.563"><g transform="translate(0 0.002)"><path d="M134.71,347.56H55.41c-6.83,0-13.6-.61-20.05-2.98C19.97,338.92,9.38,328.3,3.5,313.04A56.9,56.9,0,0,1,0,292.5Q.03,173.79.06,55.08C.09,33.64,9.87,17.56,28.3,6.79A49.952,49.952,0,0,1,50.24.38C54.01.12,57.8.02,61.58.02q156.9-.03,313.8.03c14.86.01,28.3,4.44,39.24,14.95a50.565,50.565,0,0,1,15.13,28.75,93.069,93.069,0,0,1,1.13,15.11q.105,117.075.01,234.15c-.01,14.88-4.85,28.05-15.42,38.82-9.74,9.92-21.62,15.36-35.51,15.55-21.48.29-42.97.16-64.45.18-19.18.02-38.35-.02-57.53.06a6.434,6.434,0,0,0-3.66,1.18q-51.18,38.34-102.26,76.82c-3.07,2.31-6.24,3.74-10.15,2.46-4.4-1.43-7.18-5.49-7.19-10.71q-.015-24.045,0-48.1v-21.7Zm27.64,39.65c.83-.57,1.36-.9,1.85-1.27,24.85-18.69,49.76-37.3,74.51-56.12a31.336,31.336,0,0,1,19.79-6.56q58.875.09,117.76.03c1.28,0,2.57.02,3.85-.07a26.142,26.142,0,0,0,15.94-6.37c6.42-5.65,8.88-12.9,8.87-21.27q-.045-120.555-.02-241.1c0-.83.02-1.67-.04-2.5-.51-8.26-3.84-15.05-10.53-20.07-5.21-3.91-11.18-5.08-17.57-5.08q-160.47.045-320.95.02c-1.09,0-2.18-.04-3.27.04a26.046,26.046,0,0,0-16.25,6.56c-6.26,5.69-8.68,12.87-8.68,21.17q.045,120.36.02,240.71c0,.96-.03,1.93.04,2.89.77,10.72,5.87,18.51,15.75,22.94a29.2,29.2,0,0,0,12.21,2.14q45.99-.045,91.97,0c4.7,0,9.05,1.1,12.05,5.17,2.07,2.81,2.64,6.09,2.65,9.46.04,15.59.02,31.17.02,46.76v2.52Z"/><path d="M186.81,170.17c6.61-9.17,13.02-18.06,19.42-26.95,5.66-7.85,11.56-15.54,16.93-23.58,9.67-14.46,32.95-14.68,43.5.06q39.51,55.185,79.41,110.1c11.62,16.03.97,34.98-14.43,38.49a36.429,36.429,0,0,1-7.98.96q-107.73.075-215.46.03c-14.74,0-23.86-9.45-26.28-22.26-1.31-6.91,1.39-12.87,5.56-18.18q23.745-30.255,47.61-60.42a64.379,64.379,0,0,1,7.88-8.9c11.22-9.73,29.47-7.77,38.64,3.93,1.7,2.16,3.37,4.35,5.2,6.71Zm-27.79,9.02c-16.31,21.08-32.5,42.01-48.83,63.13H321.52c-25.9-36.3-51.62-72.36-77.49-108.62-2.59,3.72-5,7.19-7.41,10.65-12.74,18.31-25.52,36.6-38.18,54.96-5.26,7.62-11.91,7.71-19.38,3.46a5.165,5.165,0,0,1-1.26-1.17c-2.11-2.5-4.18-5.03-6.28-7.53-4.11-4.9-8.23-9.8-12.5-14.88Z"/><path d="M107.54,126.94c-12.67-.63-19.5-8.32-19.68-19.34-.18-11.42,7.73-18.93,19.87-18.91,11.74.01,19.81,7.14,19.82,19.02C127.55,119.35,119.59,126.1,107.54,126.94Z"/></g></svg>