<svg xmlns="http://www.w3.org/2000/svg" width="430.965" height="430.705" viewBox="0 0 430.965 430.705"><g transform="translate(0.015 -0.005)"><path d="M350.53,430.71c-25.06-.43-44.88-9.16-60.67-26.92a77.449,77.449,0,0,1-20.21-52.45,76.455,76.455,0,0,1,18.87-51.59c6.39-7.42,13.49-14.24,20.39-21.22q42.09-42.54,84.26-84.99c4.93-4.96,8.93-10.48,10.24-17.47,2.35-12.53-.79-23.21-10.02-32.43-10.25-10.24-27.77-11.67-38.49-5.63a46.15,46.15,0,0,0-9.72,7.43q-88.74,88.545-177.33,177.23c-11.84,11.84-23.64,23.71-35.53,35.49-10.24,10.15-22.37,16.75-36.84,18.19C66.7,379.21,36.86,363.37,29,330.15c-2.89-12.23-2.52-24.28,1.93-36.1a63.635,63.635,0,0,1,14.92-22.61q92.775-92.8,185.59-185.57c5.09-5.09,9.16-10.78,10.42-18,2-11.45-.6-21.45-8.53-30.4-12.78-14.43-36.97-13.72-50.41-1.14C151.13,66.1,119.1,95.59,87.16,125.19q-31.815,29.49-63.64,58.98c-4.98,4.62-11.14,5.45-16.62,2.34a13.237,13.237,0,0,1-4.19-19.68,22.953,22.953,0,0,1,2.96-3.27q56.565-51.9,113.16-103.77c16.98-15.55,33.86-31.21,51.09-46.48C179.27,5.05,190.57.79,203.07.12c17.08-.92,32.44,3.67,45.65,14.74a55.586,55.586,0,0,1,15.63,22.06,64.181,64.181,0,0,1,4.81,28.74,57.706,57.706,0,0,1-14.9,35.46c-5.11,5.74-10.67,11.09-16.11,16.53Q151.57,204.26,64.94,290.84c-4.96,4.96-8.93,10.49-10.25,17.46-2.33,12.35.63,22.97,9.72,32.16,10.02,10.14,27.24,12.2,38.59,5.98a46.481,46.481,0,0,0,10.31-7.9Q218.985,233.06,324.52,127.43a68.8,68.8,0,0,1,18.79-13.84,58.941,58.941,0,0,1,34.41-5.31,62.073,62.073,0,0,1,31.88,13.69c10.22,8.5,16.47,19.51,19.46,32.35,5.24,22.5-.45,42.08-16.64,58.38-33.67,33.9-67.57,67.58-101.31,101.42-11.12,11.16-15.75,24.75-14.48,40.41,1.01,12.46,5.38,23.55,13.75,32.89a49.143,49.143,0,0,0,18.67,12.53,51.539,51.539,0,0,0,17.38,3.77,47.828,47.828,0,0,0,20.3-3.57c8.38-3.51,16.49-7.63,24.69-11.56,6.58-3.16,13.05-6.57,19.71-9.55a20.167,20.167,0,0,1,8.11-1.88c5.11.05,8.31,3.42,10.24,7.83,3.28,7.47,1.04,13.4-6.42,17.29-6.42,3.35-12.89,6.59-19.34,9.87-6.68,3.4-13.39,6.73-20.04,10.19a74.955,74.955,0,0,1-33.16,8.34Z"/></g></svg>