<svg xmlns="http://www.w3.org/2000/svg" width="485.001" height="430.936" viewBox="0 0 485.001 430.936"><g transform="translate(-0.01 0.001)"><path d="M54.1,196.86c-4.05,3.6-7.73,6.85-11.4,10.12-6.33,5.63-12.63,11.27-18.97,16.88a17.907,17.907,0,0,1-8.67,4.69A11.575,11.575,0,0,1,3.79,224.6c-3.87-4.51-5.35-10.78-1.64-16.35a18.624,18.624,0,0,1,3.16-3.59Q115.995,106.92,226.73,9.24a81.842,81.842,0,0,1,7.8-6.54c5.96-4.06,12.62-3.48,18.05,1.31q34.5,30.405,68.97,60.83c.51.45,1.05.86,1.94,1.59,0-1.13-.01-1.86,0-2.6.11-6.41-.26-12.87.45-19.2,1.3-11.53,9.82-18.35,21.41-18.47,21.16-.21,42.33-.06,63.5-.06,13.12,0,22.29,9.15,22.29,22.3.01,36.37.05,72.73-.08,109.1a8.247,8.247,0,0,0,3.22,6.96q22.995,20.025,45.78,40.29c3.85,3.41,6.02,7.65,4.42,12.85-1.65,5.36-4.55,9.98-10.6,10.98a13.486,13.486,0,0,1-6.83-1.22,21.768,21.768,0,0,1-5.9-3.88c-9.59-8.41-19.1-16.93-28.63-25.41-.32-.29-.67-.55-1.38-1.12v2.54q0,81.2-.04,162.4c-.04,18.72-5.88,35.44-18.93,49.16a61.942,61.942,0,0,1-22.87,14.87,79.118,79.118,0,0,1-28.98,5.01q-118.725-.03-237.44-.06c-16.06-.02-30.83-4.55-43.73-14.45-9.37-7.19-15.76-16.56-20.06-27.42a76.878,76.878,0,0,1-4.99-28.6V196.87ZM309.92,404.07h2.48c16.55,0,33.1.03,49.64-.03a49.313,49.313,0,0,0,8.4-.75c21.48-3.86,33.67-20.34,33.76-40.45.28-62.34.1-124.69.13-187.03a3.328,3.328,0,0,0-1.24-2.8Q391,162.42,379,151.74,311.365,91.86,243.73,31.99c-.36-.32-.79-.58-1.21-.89-8.03,7.1-15.96,14.1-23.88,21.11Q150.72,112.345,82.76,172.43a5.058,5.058,0,0,0-1.86,4.26q.06,92.265.05,184.53a50.109,50.109,0,0,0,.31,5.75c2.64,22.88,19.32,36.71,41.1,37.03,16.93.25,33.86.05,50.8.05h2.17V271.04c0-1.09-.02-2.18.04-3.27a27.034,27.034,0,0,1,3.3-12.12c4.82-8.34,12.18-12.52,21.68-13.18.26-.02.51-.02.77-.02,27.64,0,55.29-.05,82.93.03a25.072,25.072,0,0,1,17.22,6.54c6.29,5.68,8.66,12.92,8.66,21.19q-.03,65.52-.01,131.04v2.81Zm-26.96-.08V269.38H202.32V403.99h80.64ZM350.44,53.82c-.05.44-.1.69-.1.94,0,11.66-.03,23.33.04,34.99a3.4,3.4,0,0,0,1.18,2.18q25.425,22.335,50.9,44.59c.49.43,1.03.82,1.69,1.36V53.82H350.43Z"/></g></svg>