<svg xmlns="http://www.w3.org/2000/svg" xmlns:xlink="http://www.w3.org/1999/xlink" width="489.638" height="384.87" viewBox="0 0 489.638 384.87"><defs><clipPath id="a"><rect width="489.638" height="384.87" fill="none"/></clipPath></defs><g clip-path="url(#a)"><path d="M244.872,34.863q-112.729,0-225.458-.008C14.4,34.854,9.5,34.1,5.7,30.54.257,25.452-.98,19.087.907,12.036,2.7,5.347,7.333,1.747,13.931.517a35.441,35.441,0,0,1,6.457-.5Q245.221-.014,470.055,0c5,0,9.9.686,13.79,4.134C489.3,8.966,490.6,15.2,489,22.075c-1.631,6.979-6.242,11-13.209,12.27a36.218,36.218,0,0,1-6.457.5q-112.231.036-224.459.02"/><path d="M174.608,209.863q-77.605,0-155.21-.009c-5.009,0-9.91-.758-13.713-4.324C.17,200.358-1.023,193.887.97,186.781c1.837-6.547,6.472-10.074,12.973-11.266a36,36,0,0,1,6.457-.5q154.835-.034,309.671-.016c5,0,9.9.691,13.785,4.144,5.443,4.833,6.751,11.065,5.138,17.941-1.637,6.979-6.25,10.99-13.219,12.259a36.371,36.371,0,0,1-6.456.5q-77.357.039-154.711.02"/><path d="M104.695,384.863q-42.858,0-85.715-.024c-5.643-.01-11.058-1.161-14.808-5.832-4.681-5.832-5.3-12.424-2.464-19.247,2.955-7.1,9.086-9.221,16.1-9.753.5-.037,1-.008,1.5-.008q85.59,0,171.18.02c6.1,0,11.836,1.288,15.712,6.576,7,9.543,3.367,26.231-11.324,27.866a49.8,49.8,0,0,1-5.466.385q-42.357.036-84.715.017"/></g></svg>