<svg xmlns="http://www.w3.org/2000/svg" width="430.683" height="430.755" viewBox="0 0 430.683 430.755"><g transform="translate(0.004 0)"><path d="M201.93,114.75v-2.22q0-48.975.02-97.94c0-4.62,1-8.98,5.02-11.92,7.51-5.49,20.34-2.47,21.47,8.64.16,1.53.31,3.06.32,4.59q.03,48.3.01,96.59v2.68c.85-.77,1.41-1.24,1.93-1.75q20.88-20.475,41.76-40.96c2.26-2.22,4.68-4.19,7.9-4.88,4.96-1.06,10.41,1.53,13.53,6.45,3.09,4.88,2.85,9.68-.74,14.24A31.264,31.264,0,0,1,290.73,91q-32.505,32.535-65.04,65.03a23.233,23.233,0,0,1-4.17,3.37,11.269,11.269,0,0,1-13.44-.71,31.2,31.2,0,0,1-3.19-2.77q-32.46-32.43-64.9-64.9a31.479,31.479,0,0,1-2.31-2.58c-4.53-5.68-3.84-12.71,1.7-17.47,5.66-4.86,11.18-4.94,16.96-.21.74.61,1.46,1.26,2.14,1.93q20.67,20.265,41.33,40.57a15,15,0,0,1,1.39,1.86l.72-.39Z"/><path d="M228.77,315.41v2.89q0,48.87-.02,97.73c0,4.63-1.01,9.01-5,11.93a13.858,13.858,0,0,1-14.03,1.6c-4.53-1.81-6.82-5.42-7.46-10.14a32.326,32.326,0,0,1-.32-4.4q-.03-48.39-.01-96.77v-2.8c-.99.94-1.66,1.55-2.31,2.19q-20.67,20.28-41.34,40.55c-2.27,2.22-4.73,4.19-7.91,4.87-4.9,1.05-8.84-.93-12-4.43-4.97-5.51-5.08-11.29-.19-16.91,3.27-3.77,6.94-7.2,10.47-10.73Q176.79,302.82,205,274.7a22.589,22.589,0,0,1,5.66-4.22c4.01-2.01,7.98-1.32,11.6,1.23a26.985,26.985,0,0,1,3.35,2.87q32.61,32.55,65.18,65.14c2.29,2.29,4.28,4.8,4.98,8.06,1.4,6.44-4.07,14.03-10.93,15.34-5.14.98-8.91-1.51-12.31-4.83q-17.8-17.415-35.57-34.89c-2.59-2.54-5.2-5.07-8.19-7.99Z"/><path d="M115.19,227.91h-2.92q-48.675,0-97.35-.01c-4.4,0-8.66-.75-11.67-4.36-6.17-7.39-3.54-19.73,7.67-21.98a22.2,22.2,0,0,1,4.38-.43q48.585-.03,97.16-.02h2.76c-.83-.9-1.3-1.45-1.82-1.96q-20.34-20.34-40.67-40.68c-.68-.68-1.34-1.38-1.95-2.12-3.17-3.81-4.67-8.01-2.46-12.79,2.33-5.05,6.17-8.35,11.86-8.88a10.677,10.677,0,0,1,7.52,2.43A32.8,32.8,0,0,1,91.04,140q32.535,32.49,65.02,65.03a23.62,23.62,0,0,1,3.27,4c2.95,4.7,2.67,9.33-.72,13.75a28.57,28.57,0,0,1-2.41,2.75q-32.7,32.73-65.43,65.44a15.88,15.88,0,0,1-7.76,4.75c-4.75,1.05-8.6-.88-11.76-4.15-5.14-5.32-5.45-11.53-.53-17.05,5.88-6.6,12.15-12.86,18.28-19.25q12.315-12.84,24.66-25.66c.4-.41.77-.85,1.53-1.7Z"/><path d="M316.03,201.11h2.25q48.87,0,97.73.04c5.62.01,10.43,1.95,13.21,7.32,3.76,7.26.22,18.31-10.24,19.18-1.53.13-3.07.26-4.6.26q-48,.015-96,.01h-2.93c2.48,2.6,4.56,4.82,6.67,7.01q18.135,18.855,36.28,37.7c2.15,2.24,4.03,4.67,4.71,7.79,1.4,6.44-4.06,14.04-10.92,15.34-5.05.96-8.82-1.39-12.16-4.71-8.65-8.58-17.24-17.22-25.86-25.84q-19.725-19.725-39.44-39.46a30.216,30.216,0,0,1-2.55-2.87c-3.74-4.79-3.76-10.19-.06-15.02a28.45,28.45,0,0,1,2.41-2.74q32.64-32.655,65.29-65.3c2.24-2.24,4.67-4.21,7.88-4.9,4.96-1.07,10.41,1.53,13.53,6.45,3.09,4.88,2.85,9.69-.73,14.24a33.066,33.066,0,0,1-2.56,2.86Q337.69,178.75,317.39,199a10.816,10.816,0,0,1-1.95,1.25c.2.28.39.56.59.85Z"/><path d="M215.27,242.23c-15.66-.04-26.83-11.31-26.8-27.02.03-15.63,11.37-26.84,27.06-26.75,15.58.09,26.75,11.34,26.71,26.91-.04,15.68-11.3,26.9-26.96,26.86Z"/></g></svg>