<svg xmlns="http://www.w3.org/2000/svg" width="376.868" height="430.692" viewBox="0 0 376.868 430.692"><path d="M80.62,297.63c4.62,1.57,9.09,2.76,13.3,4.57,21.22,9.09,34.41,25,38.9,47.63,4.64,23.35-1.51,43.97-17.61,61.4-6.05,6.55-13.74,11.08-22.06,14.39a69.268,69.268,0,0,1-25.1,5.07,70.677,70.677,0,0,1-28.07-5.64,63.26,63.26,0,0,1-20.59-13.56A64.592,64.592,0,0,1,5.05,389.38,69,69,0,0,1,0,363.69a68.029,68.029,0,0,1,6.17-28.53c9.06-19.73,24.68-31.41,45.44-36.64,1.63-.41,2.23-.95,2.22-2.75q-.09-80.325,0-160.66c0-1.85-.55-2.52-2.29-2.94A66.347,66.347,0,0,1,16.61,111.7C7.97,102.1,3.16,90.69.99,78.02A67.56,67.56,0,0,1,4.75,42.16,62.532,62.532,0,0,1,36.33,7.23,67.334,67.334,0,0,1,66.73,0a68.232,68.232,0,0,1,38.99,11.71C122.29,22.97,131.14,39,133.69,58.55c3.68,28.22-10,57.16-38.85,69.67a105.586,105.586,0,0,1-12.39,4.07,2.131,2.131,0,0,0-1.86,2.49q.075,43.68.04,87.35v75.51Zm-13.45-190c23.43-1.11,40.12-16.87,40.2-40.31C107.45,44.13,91.13,27.04,67.22,27c-23.49-.04-40.1,16.6-40.2,40.07-.1,23.24,16.41,39.4,40.14,40.56Zm-.06,296.33c23.61-1.08,40.27-17.06,40.26-40.44-.01-23.23-16.33-40.12-40.09-40.19-23.65-.07-40.25,16.77-40.26,40.2,0,23.31,16.54,39.24,40.08,40.42Z"/><path d="M296.23,297.88V295.3q0-59.55.02-119.1c0-4.62,1.01-8.98,5.04-11.91,7.52-5.47,20.33-2.44,21.45,8.69.15,1.53.31,3.06.31,4.59q.03,58.875.01,117.76v2.59c20.01,4.72,35.98,15.01,45.71,33.43a66.678,66.678,0,0,1,6.49,46.42c-7.65,35.18-35.78,53.33-66.39,52.8-35.76-.62-62.04-24.13-65.95-60.23-3.16-29.19,12.64-63.14,53.31-72.44Zm13.36,106.08c23.67-1.1,40.27-17.15,40.23-40.47s-16.44-40.12-40.11-40.16c-23.72-.04-40.25,16.88-40.23,40.23.02,23.37,16.62,39.23,40.11,40.4Z"/><path d="M309.95,86.18c-2.22,2.14-4.02,3.86-5.8,5.6q-15.75,15.405-31.5,30.8c-3.13,3.05-6.59,5.71-11.35,5-5.24-.78-8.85-3.93-11.07-8.57-2.06-4.28-1.19-8.37,1.64-12.07a38.51,38.51,0,0,1,3.04-3.47q16.86-17.28,33.74-34.55c.53-.54,1.04-1.09,1.67-1.76-2.29-2.36-4.45-4.62-6.63-6.86Q268.9,45.165,254.1,30.04c-2.94-3.01-5.36-6.34-4.86-10.83.63-5.61,3.94-9.35,8.94-11.58,4.55-2.03,8.86-.92,12.31,2.27,7.47,6.93,14.69,14.13,22,21.24q7.785,7.575,15.55,15.19c.49.48,1.01.93,1.64,1.5,1.98-1.91,3.87-3.71,5.73-5.54q15.615-15.27,31.21-30.54c2.66-2.61,5.57-4.88,9.46-4.98,6.06-.16,10.12,3.12,12.79,8.25,2.41,4.64,1.53,9.14-1.84,12.83-6.06,6.62-12.41,12.97-18.66,19.41-6.39,6.57-12.81,13.11-19.39,19.85.56.61,1.04,1.16,1.56,1.69q17.01,17.415,34,34.82a28.926,28.926,0,0,1,3.47,4.11c3.55,5.32,2.54,11.73-2.42,16.09-5.74,5.05-11.14,5.17-17.1.38a26.214,26.214,0,0,1-2.01-1.79q-17.265-16.875-34.52-33.76a30.9,30.9,0,0,1-2-2.48Z"/></svg>