<svg xmlns="http://www.w3.org/2000/svg" width="430.603" height="430.734" viewBox="0 0 430.603 430.734"><g transform="translate(-0.001 0.008)"><path d="M309.67,342.28c-1,.93-1.65,1.51-2.27,2.12q-15.09,14.7-30.19,29.4c-2.59,2.52-5.87,3-9.25,3.01q-32.235.045-64.46.01c-13.28,0-26.55-.05-39.83.03a15.785,15.785,0,0,1-12.2-4.86c-9.36-9.5-19.05-18.68-28.62-27.98-.49-.47-1.01-.91-1.87-1.67v60.72c0,6.94-1.63,13.33-6.32,18.67-5.52,6.3-12.64,8.95-20.85,8.96q-22.89.03-45.79,0c-11.22,0-22.45.02-33.67-.02a15.169,15.169,0,0,1-9.42-2.77c-4.7-3.57-6.2-10.26-3.8-16.76q9.675-26.205,19.37-52.42c1.31-3.54,2.48-7.14,3.96-10.61a33.472,33.472,0,0,0,2.41-13.44q-.15-74.175-.01-148.35c.03-13.55,3.92-25.95,13.16-36.2a44.447,44.447,0,0,1,23.82-13.63,106.543,106.543,0,0,1,15.97-1.96c4.66-.32,9.35-.07,14.35-.07,0-.89.01-1.69,0-2.49a158.076,158.076,0,0,1,3.06-36.51c4.95-23.16,15.55-43.36,32.24-60.14A114.946,114.946,0,0,1,188.02,3.35C196.31,1.58,204.84.09,213.29,0c30.16-.3,57.25,8.04,79.79,29.25,22.01,20.7,34.99,46.11,41.06,75.35a131.423,131.423,0,0,1,2.1,16.57,87.489,87.489,0,0,1-.32,10.35c-.04.89-.14,1.78-.23,2.95h2.16c6.54.11,13.1-.1,19.61.4,22.2,1.71,39.27,16.33,43.96,37.03a68.633,68.633,0,0,1,1.54,14.87c.11,50.73.06,101.47.11,152.2a15.188,15.188,0,0,0,.94,5.21q12.69,33.9,25.52,67.75c2.31,6.12.82,12.46-3.78,15.98a14.546,14.546,0,0,1-9.03,2.77c-26.87.04-53.75.09-80.62-.02-13.16-.05-23.14-8.18-25.77-20.71a35.966,35.966,0,0,1-.62-7.26q-.075-28.86-.03-57.72v-2.68ZM120.99,161.38v2.09q0,69.165-.03,138.34a4.114,4.114,0,0,0,1.32,3.19q21.87,21.795,43.67,43.67a4.291,4.291,0,0,0,3.38,1.33q45.99-.045,91.97,0a4.46,4.46,0,0,0,3.5-1.48q21.39-21.87,42.82-43.7a4.7,4.7,0,0,0,1.19-2.99q.09-69.165.05-138.34v-2.12H120.99Zm187.73-27.01a6.24,6.24,0,0,0,.13-.86c.09-9.68.11-19.36-1.49-28.96-2.98-17.83-10.06-33.79-22.52-46.95-24.59-25.98-54.71-35.99-89.74-28.52-30.72,6.55-52.43,25.2-65.94,53.35-5.45,11.35-7.62,23.6-8.09,36.13-.19,5.23-.03,10.47-.03,15.81H308.72Zm89.22,269.38c-.22-.76-.39-1.43-.62-2.07-6.33-17.38-12.71-34.75-18.94-52.17a23.008,23.008,0,0,1-1.31-7.49c-.1-23.99-.06-47.98-.06-71.96,0-28.67.04-57.34-.04-86.01a22.154,22.154,0,0,0-17.35-21.9c-4.31-.95-8.9-.68-13.37-.84-3.18-.11-6.37-.02-9.76-.02q-.42,121.4-.85,242.45h62.31Zm-303.92.03V161.38c-6.6,0-13.09-.34-19.52.14a22.878,22.878,0,0,0-9.56,3.1c-7.83,4.61-11.32,11.81-11.31,20.88q.06,78.405-.03,156.81a20.965,20.965,0,0,1-1.21,6.93c-6.26,17.47-12.66,34.9-19.01,52.34-.25.68-.44,1.38-.69,2.19H94.03Z"/><path d="M214.58,188.34c13.02,0,26.03-.02,39.05.01,3.72.01,7.35.64,10.2,3.25,4.19,3.83,5.15,8.69,3.78,14.04s-5.01,8.33-10.4,9.17a31.781,31.781,0,0,1-4.97.35q-38.19.03-76.37.01c-8.61,0-13.82-4.05-14.93-12.55-.8-6.12,2.55-12.54,10.58-13.89a30.547,30.547,0,0,1,4.97-.37q19.05-.045,38.09-.02Z"/><path d="M214.56,269.06c-13.15,0-26.29.03-39.44-.02-4.1-.02-7.96-1.05-10.68-4.35-3.71-4.5-4.8-9.55-2.38-15.05,2.46-5.58,7.31-7.3,12.85-7.37,10.45-.13,20.9-.04,31.36-.04q23.655,0,47.32,0a15.532,15.532,0,0,1,9.62,2.74c4.07,3.03,5.92,8.95,4.52,14.16-1.52,5.63-5.08,8.85-10.69,9.59a37.137,37.137,0,0,1-4.59.33c-12.63.03-25.26.01-37.9.01Z"/><path d="M160.7,80.43c0-15.53,11.3-26.78,26.88-26.78s26.81,11.22,26.85,26.79c.04,15.66-11.23,27.01-26.86,26.97-12.78-.04-27.05-8.69-26.87-26.98Z"/><path d="M241.53,93.88c.07-7.7,5.85-13.61,13.46-13.2,8.62.46,13.24,5.23,13.15,13.42-.09,8.75-5.42,13.05-13.37,13.22-7.79.17-13.31-5.76-13.24-13.44Z"/></g></svg>