<svg xmlns="http://www.w3.org/2000/svg" width="430.788" height="377.071" viewBox="0 0 430.788 377.071"><g transform="translate(-0.001 0)"><path d="M424.21,177.35a81.506,81.506,0,0,1-34.32-31.03c-8.49-13.84-13.05-28.71-13-44.97.04-10.65.07-21.29,0-31.94-.1-13.92-3.25-27.02-10.69-38.95-7.47-11.96-17.98-20.22-30.97-25.39-9.48-3.76-19.4-5.1-29.56-5.07-15.97.05-31.94,0-47.91.03a24.678,24.678,0,0,0-4.78.39c-5.06,1-8.6,3.79-9.95,8.96-1.42,5.45-.42,10.32,3.79,14.21,2.84,2.62,6.48,3.24,10.2,3.24,16.23.03,32.45-.03,48.68.05a61.879,61.879,0,0,1,10.71.83c9.2,1.68,17.28,5.65,23.44,12.88a42.6,42.6,0,0,1,10.18,27.95c.13,10.07.01,20.14.03,30.21a128.648,128.648,0,0,0,2.69,26.54,105.357,105.357,0,0,0,24.47,48.73c4.54,5.14,9.22,10.15,13.84,15.23.31-.19.61-.38.92-.57-.47.42-.92.86-1.4,1.26a122.665,122.665,0,0,0-16.56,16.85,105.959,105.959,0,0,0-23.51,62.23c-.63,12.41-.27,24.88-.47,37.31a65.8,65.8,0,0,1-.83,10.32c-1.53,8.61-5.19,16.31-11.6,22.3-8.21,7.67-18.22,11.24-29.45,11.26-16.61.03-33.22,0-49.84.02a30.542,30.542,0,0,0-4.97.36c-5.11.83-8.76,3.54-10.22,8.64-1.58,5.54-.63,10.57,3.72,14.58,2.84,2.61,6.49,3.22,10.21,3.23,16.36.03,32.71-.02,49.07.02a77.635,77.635,0,0,0,28.98-5.03c13.28-5.24,23.92-13.7,31.42-25.98,7.18-11.76,10.22-24.63,10.38-38.27.16-13.21-.22-26.44.5-39.61.97-17.72,8.25-33.16,19.25-46.88a78.472,78.472,0,0,1,24.97-20.15,34.363,34.363,0,0,0,5.35-3.36c5.21-4.13,5.78-16.24-2.76-20.44Z"/><path d="M56.76,170.28a105.959,105.959,0,0,0,23.51-62.23c.63-12.41.27-24.88.47-37.31a65.8,65.8,0,0,1,.83-10.32c1.53-8.61,5.19-16.31,11.6-22.3,8.21-7.67,18.22-11.24,29.45-11.26,16.61-.03,33.22,0,49.84-.02a30.541,30.541,0,0,0,4.97-.36c5.11-.83,8.76-3.54,10.22-8.64,1.58-5.54.63-10.57-3.72-14.58C181.09.64,177.45.03,173.73.02,157.37,0,141.02.04,124.66,0A77.635,77.635,0,0,0,95.68,5.03C82.4,10.27,71.76,18.73,64.26,31.01,57.08,42.77,54.04,55.64,53.88,69.28c-.16,13.21.22,26.44-.5,39.61-.97,17.72-8.25,33.16-19.25,46.88A78.472,78.472,0,0,1,9.16,175.92a34.361,34.361,0,0,0-5.35,3.36c-5.21,4.13-5.78,16.24,2.76,20.44a81.506,81.506,0,0,1,34.32,31.03c8.49,13.84,13.05,28.71,13,44.97-.04,10.65-.07,21.29,0,31.94.1,13.92,3.25,27.02,10.69,38.95,7.47,11.96,17.98,20.22,30.97,25.39,9.47,3.76,19.4,5.1,29.55,5.07,15.97-.05,31.94,0,47.91-.03a24.676,24.676,0,0,0,4.78-.39c5.06-1,8.6-3.79,9.95-8.96,1.42-5.45.42-10.32-3.79-14.21-2.84-2.62-6.48-3.24-10.2-3.24-16.23-.03-32.45.03-48.68-.05a61.879,61.879,0,0,1-10.71-.83c-9.2-1.68-17.28-5.65-23.44-12.88a42.6,42.6,0,0,1-10.18-27.95c-.13-10.07-.01-20.14-.03-30.21a128.649,128.649,0,0,0-2.69-26.54,105.357,105.357,0,0,0-24.47-48.73c-4.54-5.14-9.22-10.15-13.84-15.23-.31.19-.61.38-.92.57.47-.42.92-.86,1.4-1.26a122.665,122.665,0,0,0,16.56-16.85Z"/></g></svg>