<svg xmlns="http://www.w3.org/2000/svg" width="484.359" height="269.464" viewBox="0 0 484.359 269.464"><g transform="translate(-0.005 -0.016)"><path d="M320.81,242.59c9.3,0,18.6.08,27.9-.01,27.6-.27,52.32-8.56,73.19-26.98a101.263,101.263,0,0,0,31.78-51.83c8.46-33.2,3.43-64.25-16.26-92.48-12.75-18.28-30.1-30.69-51.1-38.08a114.117,114.117,0,0,0-37.56-6.2c-21.61-.12-43.23.03-64.84-.11a21.659,21.659,0,0,1-8.16-1.76c-5.17-2.23-6.81-7.86-6.57-12.29.22-4.02,1.62-7.66,5.1-10.11A15.268,15.268,0,0,1,283.21.18C305.4.12,327.6-.19,349.78.24c26.33.51,51.1,7.01,73.25,21.75,29.35,19.53,48.77,46.21,57.22,80.62a132.683,132.683,0,0,1,4.11,32.92,137.294,137.294,0,0,1-4.7,33.81c-8.39,31.8-26.39,56.92-53.07,75.88-18.79,13.36-39.9,20.74-62.77,23.08-6.81.7-13.68,1.04-20.53,1.09-19.75.14-39.51.1-59.26-.01a22.516,22.516,0,0,1-7.48-1.39c-5.22-1.92-7.53-7-7.36-12.56.12-4.17,1.64-7.94,5.32-10.38a16.317,16.317,0,0,1,9.16-2.43c12.38-.04,24.76-.02,37.13-.02Z"/><path d="M163.71,26.97c-9.56,0-19.11-.1-28.67.02-24.81.31-47.52,7.08-67.3,22.45C47.56,65.11,34.83,85.58,29.32,110.45c-5.71,25.76-2.75,50.62,9.12,74.21,10.84,21.54,27.45,37.29,49.25,47.58,15.16,7.16,31.24,10.22,47.89,10.31,21.61.12,43.23,0,64.84.05,4.55.01,8.83,1.01,11.79,4.91,5.54,7.3,2.78,20.34-8.61,21.6a36.049,36.049,0,0,1-4.02.29c-20.84.02-41.69.1-62.53-.01a147.378,147.378,0,0,1-47.01-7.72c-22.54-7.69-41.46-20.76-57.14-38.63A128.626,128.626,0,0,1,1.73,156.02c-6.09-40.58,3.93-76.89,30.3-108.43A128.555,128.555,0,0,1,78.73,12.3,131.513,131.513,0,0,1,123.76.93c8.94-.62,17.93-.7,26.9-.76C167.27.06,183.88.12,200.49.15c3.65,0,7.21.66,10.03,3.18,4.17,3.74,5.19,8.52,3.94,13.82-1.27,5.37-4.82,8.45-10.19,9.42a28.471,28.471,0,0,1-4.97.38Q181.51,26.995,163.71,26.97Z"/><path d="M242.06,148.19q-56.565,0-113.14-.02c-4.42,0-8.65-.89-11.56-4.57-3.57-4.52-4-9.62-1.77-14.86,2.28-5.37,6.97-6.96,12.29-7.38.45-.04.9,0,1.35,0h225.7c3.79,0,7.49.56,10.44,3.15,4.29,3.77,5.26,8.66,3.96,14.01-1.28,5.28-4.83,8.31-10.12,9.27a28.478,28.478,0,0,1-4.97.39q-56.085.03-112.18.02Z"/></g></svg>