<svg xmlns="http://www.w3.org/2000/svg" width="517.052" height="100" viewBox="0 0 517.052 100"><g transform="translate(-661.092 -546.853)"><path d="M1886.352-3900.775a58.863,58.863,0,0,1-9.4,6.978c-14.393-22.561-10.68-45.195-10.68-45.195l45.773-25.145,26.253,14.423a78.352,78.352,0,0,1,.424,13.741l-26.678-15.109-34.522,19.551,0,.175a61.015,61.015,0,0,0,2.625,16.787,58.509,58.509,0,0,0,6.207,13.793" transform="translate(-1204.745 4510.989)" fill="#333"/><path d="M2179.59-3553.339c-13.431-6.39-23.01-14.249-29.823-22.447a55.259,55.259,0,0,0,8.748-7.742,71.4,71.4,0,0,0,20.931,16.982l.143.079.143-.079c15.959-8.827,26.542-21.03,31.45-36.27a61.161,61.161,0,0,0,2.906-17.753v-.175c.267-5.286.263-9.833.133-13.569l11.135,6.118s8.079,49.236-45.769,74.854" transform="translate(-1472.295 4200.192)" fill="#26b693"/><path d="M2474.966-3296.169a1.859,1.859,0,0,1-1.859-1.858,1.859,1.859,0,0,1,1.859-1.859,1.858,1.858,0,0,1,1.858,1.859A1.859,1.859,0,0,1,2474.966-3296.169Zm14.141-11.514a3.979,3.979,0,0,1-3.844,2.953,3.98,3.98,0,0,1-3.979-3.98,3.978,3.978,0,0,1,2.952-3.842,11.426,11.426,0,0,0-5.32-1.305,11.5,11.5,0,0,0-11.495,11.5,11.5,11.5,0,0,0,11.495,11.495,11.5,11.5,0,0,0,11.495-11.495,11.448,11.448,0,0,0-1.3-5.32" transform="translate(-1771.621 3898.226)" fill="#333"/><path d="M48.662-38.483,31.817,9.007H17.34L.495-38.483H12.807L24.579-2.629,36.418-38.483ZM83.029.619H65.3L62.463,9.007H50.354L67.537-38.483H80.932L98.115,9.007H85.87Zm-2.977-8.93L74.167-25.7,68.349-8.311ZM114.893.077h15.154v8.93H103.324V-38.483h11.568Zm32.269-38.561V9.007H135.594V-38.483Zm26.181,0a27.623,27.623,0,0,1,13.124,2.977,21.266,21.266,0,0,1,8.693,8.355,24.548,24.548,0,0,1,3.078,12.414,24.6,24.6,0,0,1-3.078,12.38,21.153,21.153,0,0,1-8.727,8.389,27.675,27.675,0,0,1-13.09,2.977H155.551V-38.483ZM172.6-1q6.562,0,10.215-3.585t3.653-10.148q0-6.562-3.653-10.215T172.6-28.606h-5.48V-1ZM234.3.619H216.572L213.73,9.007H201.621L218.8-38.483H232.2L249.382,9.007H237.138Zm-2.977-8.93L225.434-25.7,219.616-8.311Zm57.436-30.172v9.268H276.172V9.007H264.6V-29.215H252.021v-9.268Zm17.386,0V9.007H294.573V-38.483ZM336.99,9.481a24.786,24.786,0,0,1-12.279-3.112,23.263,23.263,0,0,1-8.862-8.693,24.3,24.3,0,0,1-3.281-12.549,24.116,24.116,0,0,1,3.281-12.515,23.337,23.337,0,0,1,8.862-8.659A24.786,24.786,0,0,1,336.99-39.16a24.786,24.786,0,0,1,12.279,3.112,22.848,22.848,0,0,1,8.795,8.659,24.509,24.509,0,0,1,3.213,12.515A24.492,24.492,0,0,1,358.03-2.324a23.088,23.088,0,0,1-8.795,8.693A24.6,24.6,0,0,1,336.99,9.481Zm0-10.554a11.654,11.654,0,0,0,9.1-3.788q3.416-3.788,3.416-10.012,0-6.292-3.416-10.046a11.705,11.705,0,0,0-9.1-3.755,11.839,11.839,0,0,0-9.167,3.721q-3.416,3.721-3.416,10.08,0,6.292,3.416,10.046A11.786,11.786,0,0,0,336.99-1.073Zm73.2,10.08H398.62L379.272-20.285V9.007H367.7V-38.483h11.568L398.62-9.055V-38.483h11.568Z" transform="translate(765.644 594.607)" fill="#333"/><path d="M10.417,5.118A9.49,9.49,0,0,1,5.7,3.934,8.428,8.428,0,0,1,2.383.569a10.319,10.319,0,0,1-1.2-5.057A10.022,10.022,0,0,1,2.417-9.511,8.507,8.507,0,0,1,5.783-12.86a9.764,9.764,0,0,1,4.769-1.167,9.764,9.764,0,0,1,4.769,1.167,8.537,8.537,0,0,1,3.366,3.332,10,10,0,0,1,1.235,5.04A9.878,9.878,0,0,1,18.653.569,8.792,8.792,0,0,1,15.22,3.934,9.844,9.844,0,0,1,10.417,5.118Zm0-2.706a6.5,6.5,0,0,0,3.112-.778A5.92,5.92,0,0,0,15.88-.7a7.476,7.476,0,0,0,.9-3.788A7.591,7.591,0,0,0,15.9-8.277a5.759,5.759,0,0,0-2.3-2.317,6.417,6.417,0,0,0-3.078-.761,6.388,6.388,0,0,0-3.1.761A5.58,5.58,0,0,0,5.174-8.277a7.839,7.839,0,0,0-.846,3.788A8.05,8.05,0,0,0,5.157-.666,5.508,5.508,0,0,0,7.373,1.651,6.223,6.223,0,0,0,10.417,2.412ZM27.059-10.306a7.34,7.34,0,0,1,2.723-2.655,8.146,8.146,0,0,1,4.211-1.065,8.675,8.675,0,0,1,4.482,1.184,8.344,8.344,0,0,1,3.163,3.332,10.412,10.412,0,0,1,1.15,4.989A10.64,10.64,0,0,1,41.638.484,8.5,8.5,0,0,1,38.475,3.9a8.49,8.49,0,0,1-4.482,1.218,8.079,8.079,0,0,1-4.177-1.066A7.619,7.619,0,0,1,27.059,1.4V13.608H23.981V-13.723h3.078ZM39.642-4.522A7.536,7.536,0,0,0,38.8-8.175a5.855,5.855,0,0,0-2.283-2.368,6.321,6.321,0,0,0-3.163-.812,6.157,6.157,0,0,0-3.129.829,6.059,6.059,0,0,0-2.3,2.4,7.441,7.441,0,0,0-.863,3.636,7.513,7.513,0,0,0,.863,3.67,6.059,6.059,0,0,0,2.3,2.4,6.157,6.157,0,0,0,3.129.829,6.22,6.22,0,0,0,3.163-.829A5.946,5.946,0,0,0,38.8-.818,7.71,7.71,0,0,0,39.642-4.522ZM50.6-11.186V-.26a2.6,2.6,0,0,0,.575,1.911,2.834,2.834,0,0,0,2,.558h2.266v2.6H52.665A5.52,5.52,0,0,1,48.809,3.63,5.081,5.081,0,0,1,47.523-.26V-11.186h-2.4v-2.537h2.4v-4.668H50.6v4.668h4.837v2.537Zm10.148-5.547a2.025,2.025,0,0,1-1.488-.609,2.025,2.025,0,0,1-.609-1.488,2.025,2.025,0,0,1,.609-1.488,2.025,2.025,0,0,1,1.488-.609,1.93,1.93,0,0,1,1.438.609,2.054,2.054,0,0,1,.592,1.488,2.054,2.054,0,0,1-.592,1.488A1.93,1.93,0,0,1,60.749-16.733Zm1.488,3.01V4.814H59.159V-13.723Zm27.534-.338a8.108,8.108,0,0,1,3.856.9A6.468,6.468,0,0,1,96.3-10.475a8.978,8.978,0,0,1,.981,4.363V4.814H94.236V-5.672a6.007,6.007,0,0,0-1.37-4.245,4.816,4.816,0,0,0-3.7-1.471A4.949,4.949,0,0,0,85.34-9.85,6.33,6.33,0,0,0,83.919-5.4V4.814H80.875V-5.672a6.007,6.007,0,0,0-1.37-4.245,4.816,4.816,0,0,0-3.7-1.471A4.949,4.949,0,0,0,71.979-9.85,6.33,6.33,0,0,0,70.558-5.4V4.814H67.48V-13.723h3.078v2.672a6.082,6.082,0,0,1,2.452-2.232,7.427,7.427,0,0,1,3.4-.778,8.021,8.021,0,0,1,4.127,1.049,6.4,6.4,0,0,1,2.672,3.078,6.08,6.08,0,0,1,2.571-3.044A7.573,7.573,0,0,1,89.771-14.061Zm14.139-2.672a2.025,2.025,0,0,1-1.488-.609,2.025,2.025,0,0,1-.609-1.488,2.025,2.025,0,0,1,.609-1.488,2.025,2.025,0,0,1,1.488-.609,1.93,1.93,0,0,1,1.438.609,2.054,2.054,0,0,1,.592,1.488,2.054,2.054,0,0,1-.592,1.488A1.93,1.93,0,0,1,103.91-16.733Zm1.488,3.01V4.814h-3.078V-13.723Zm7.543,16h9.1V4.814H109.424V2.277l9-13.5h-8.93v-2.5h12.482v2.5Zm11.94-6.8a10.412,10.412,0,0,1,1.15-4.989,8.344,8.344,0,0,1,3.163-3.332,8.675,8.675,0,0,1,4.482-1.184,8.225,8.225,0,0,1,4.228,1.049,6.987,6.987,0,0,1,2.672,2.638v-3.383h3.112V4.814h-3.112V1.363a7.252,7.252,0,0,1-2.723,2.689,8.146,8.146,0,0,1-4.211,1.066A8.4,8.4,0,0,1,129.178,3.9,8.541,8.541,0,0,1,126.032.484,10.64,10.64,0,0,1,124.882-4.522Zm15.695.034a7.536,7.536,0,0,0-.846-3.653,5.971,5.971,0,0,0-2.283-2.385,6.22,6.22,0,0,0-3.163-.829,6.228,6.228,0,0,0-3.146.812,5.89,5.89,0,0,0-2.266,2.368,7.536,7.536,0,0,0-.846,3.653,7.71,7.71,0,0,0,.846,3.7,5.982,5.982,0,0,0,2.266,2.4,6.129,6.129,0,0,0,3.146.829,6.22,6.22,0,0,0,3.163-.829,5.945,5.945,0,0,0,2.283-2.4A7.635,7.635,0,0,0,140.577-4.488Zm12.076-6.7V-.26a2.6,2.6,0,0,0,.575,1.911,2.834,2.834,0,0,0,2,.558h2.266v2.6h-2.774A5.52,5.52,0,0,1,150.86,3.63a5.081,5.081,0,0,1-1.285-3.89V-11.186h-2.4v-2.537h2.4v-4.668h3.078v4.668h4.837v2.537ZM162.8-16.733a2.025,2.025,0,0,1-1.488-.609,2.024,2.024,0,0,1-.609-1.488,2.024,2.024,0,0,1,.609-1.488,2.025,2.025,0,0,1,1.488-.609,1.93,1.93,0,0,1,1.438.609,2.054,2.054,0,0,1,.592,1.488,2.054,2.054,0,0,1-.592,1.488A1.93,1.93,0,0,1,162.8-16.733Zm1.488,3.01V4.814h-3.078V-13.723ZM177.616,5.118A9.49,9.49,0,0,1,172.9,3.934,8.428,8.428,0,0,1,169.582.569a10.319,10.319,0,0,1-1.2-5.057,10.022,10.022,0,0,1,1.235-5.023,8.507,8.507,0,0,1,3.366-3.349,9.764,9.764,0,0,1,4.769-1.167,9.764,9.764,0,0,1,4.769,1.167,8.537,8.537,0,0,1,3.366,3.332,10,10,0,0,1,1.235,5.04A9.878,9.878,0,0,1,185.852.569a8.792,8.792,0,0,1-3.433,3.366A9.844,9.844,0,0,1,177.616,5.118Zm0-2.706a6.5,6.5,0,0,0,3.112-.778A5.92,5.92,0,0,0,183.079-.7a7.476,7.476,0,0,0,.9-3.788,7.591,7.591,0,0,0-.879-3.788,5.759,5.759,0,0,0-2.3-2.317,6.417,6.417,0,0,0-3.078-.761,6.388,6.388,0,0,0-3.1.761,5.58,5.58,0,0,0-2.249,2.317,7.839,7.839,0,0,0-.846,3.788,8.049,8.049,0,0,0,.829,3.822,5.508,5.508,0,0,0,2.216,2.317A6.224,6.224,0,0,0,177.616,2.412Zm22.6-16.473a7.512,7.512,0,0,1,5.48,2.046,7.876,7.876,0,0,1,2.1,5.9V4.814h-3.044V-5.672a5.96,5.96,0,0,0-1.387-4.245,4.955,4.955,0,0,0-3.788-1.471A5.074,5.074,0,0,0,195.7-9.867a6.219,6.219,0,0,0-1.438,4.431V4.814H191.18V-13.723h3.078v2.638a6.111,6.111,0,0,1,2.486-2.2A7.712,7.712,0,0,1,200.211-14.061Zm20.5,9.539a10.412,10.412,0,0,1,1.15-4.989,8.344,8.344,0,0,1,3.163-3.332,8.675,8.675,0,0,1,4.482-1.184,8.225,8.225,0,0,1,4.228,1.049A6.987,6.987,0,0,1,236.4-10.34v-3.383h3.112V4.814H236.4V1.363a7.252,7.252,0,0,1-2.723,2.689,8.146,8.146,0,0,1-4.211,1.066A8.4,8.4,0,0,1,225.005,3.9,8.541,8.541,0,0,1,221.86.484,10.64,10.64,0,0,1,220.709-4.522Zm15.7.034a7.536,7.536,0,0,0-.846-3.653,5.971,5.971,0,0,0-2.283-2.385,6.22,6.22,0,0,0-3.163-.829,6.228,6.228,0,0,0-3.146.812A5.889,5.889,0,0,0,224.7-8.175a7.536,7.536,0,0,0-.846,3.653,7.71,7.71,0,0,0,.846,3.7,5.982,5.982,0,0,0,2.266,2.4,6.129,6.129,0,0,0,3.146.829,6.22,6.22,0,0,0,3.163-.829,5.945,5.945,0,0,0,2.283-2.4A7.635,7.635,0,0,0,236.4-4.488Zm17.352-9.573a7.512,7.512,0,0,1,5.48,2.046,7.876,7.876,0,0,1,2.1,5.9V4.814H258.29V-5.672A5.96,5.96,0,0,0,256.9-9.917a4.955,4.955,0,0,0-3.788-1.471,5.074,5.074,0,0,0-3.873,1.522A6.219,6.219,0,0,0,247.8-5.435V4.814h-3.078V-13.723H247.8v2.638a6.111,6.111,0,0,1,2.486-2.2A7.712,7.712,0,0,1,253.757-14.061Zm11.467,9.539a10.412,10.412,0,0,1,1.15-4.989,8.344,8.344,0,0,1,3.163-3.332,8.739,8.739,0,0,1,4.516-1.184,8.384,8.384,0,0,1,4.025,1,7.2,7.2,0,0,1,2.841,2.621v-9.809h3.112V4.814h-3.112V1.33a7.2,7.2,0,0,1-2.706,2.723,8.055,8.055,0,0,1-4.194,1.066A8.49,8.49,0,0,1,269.536,3.9,8.5,8.5,0,0,1,266.374.484,10.639,10.639,0,0,1,265.224-4.522Zm15.7.034a7.536,7.536,0,0,0-.846-3.653,5.972,5.972,0,0,0-2.283-2.385,6.22,6.22,0,0,0-3.163-.829,6.228,6.228,0,0,0-3.146.812,5.889,5.889,0,0,0-2.266,2.368,7.536,7.536,0,0,0-.846,3.653,7.71,7.71,0,0,0,.846,3.7,5.982,5.982,0,0,0,2.266,2.4,6.129,6.129,0,0,0,3.146.829,6.22,6.22,0,0,0,3.163-.829,5.946,5.946,0,0,0,2.283-2.4A7.635,7.635,0,0,0,280.919-4.488Zm20.431-6.224a5.9,5.9,0,0,1,2.317-2.469,7.161,7.161,0,0,1,3.67-.879v3.18h-.812q-5.175,0-5.175,5.615V4.814h-3.078V-13.723h3.078ZM327.8-5.165a18.1,18.1,0,0,1-.1,1.86H312.884A5.993,5.993,0,0,0,314.761.974,5.971,5.971,0,0,0,318.9,2.514a5.692,5.692,0,0,0,3.332-.93A4.924,4.924,0,0,0,324.114-.9h3.315a7.968,7.968,0,0,1-2.977,4.347A8.984,8.984,0,0,1,318.9,5.118a9.37,9.37,0,0,1-4.719-1.184A8.38,8.38,0,0,1,310.922.569a10.438,10.438,0,0,1-1.184-5.057,10.587,10.587,0,0,1,1.15-5.04,8.073,8.073,0,0,1,3.23-3.332,9.616,9.616,0,0,1,4.786-1.167,9.3,9.3,0,0,1,4.668,1.15A7.963,7.963,0,0,1,326.7-9.714,9.333,9.333,0,0,1,327.8-5.165Zm-3.18-.643a5.678,5.678,0,0,0-.778-3.027,5.059,5.059,0,0,0-2.114-1.928,6.594,6.594,0,0,0-2.96-.66,5.705,5.705,0,0,0-3.975,1.488,6.064,6.064,0,0,0-1.877,4.127Zm10.317-4.5a7.34,7.34,0,0,1,2.723-2.655,8.146,8.146,0,0,1,4.211-1.065,8.674,8.674,0,0,1,4.482,1.184,8.344,8.344,0,0,1,3.163,3.332,10.412,10.412,0,0,1,1.15,4.989,10.64,10.64,0,0,1-1.15,5.006A8.5,8.5,0,0,1,346.354,3.9a8.489,8.489,0,0,1-4.482,1.218,8.079,8.079,0,0,1-4.177-1.066A7.619,7.619,0,0,1,334.938,1.4V13.608H331.86V-13.723h3.078Zm12.583,5.784a7.536,7.536,0,0,0-.846-3.653,5.855,5.855,0,0,0-2.283-2.368,6.321,6.321,0,0,0-3.163-.812,6.156,6.156,0,0,0-3.129.829,6.059,6.059,0,0,0-2.3,2.4,7.441,7.441,0,0,0-.863,3.636,7.513,7.513,0,0,0,.863,3.67,6.059,6.059,0,0,0,2.3,2.4,6.156,6.156,0,0,0,3.129.829,6.22,6.22,0,0,0,3.163-.829,5.946,5.946,0,0,0,2.283-2.4A7.71,7.71,0,0,0,347.521-4.522Zm15.289,9.64a9.49,9.49,0,0,1-4.719-1.184A8.428,8.428,0,0,1,354.777.569a10.318,10.318,0,0,1-1.2-5.057,10.022,10.022,0,0,1,1.235-5.023,8.507,8.507,0,0,1,3.366-3.349,9.764,9.764,0,0,1,4.769-1.167,9.764,9.764,0,0,1,4.769,1.167,8.538,8.538,0,0,1,3.366,3.332,10,10,0,0,1,1.235,5.04A9.878,9.878,0,0,1,371.047.569a8.791,8.791,0,0,1-3.433,3.366A9.844,9.844,0,0,1,362.81,5.118Zm0-2.706a6.5,6.5,0,0,0,3.112-.778A5.92,5.92,0,0,0,368.273-.7a7.476,7.476,0,0,0,.9-3.788,7.592,7.592,0,0,0-.879-3.788,5.759,5.759,0,0,0-2.3-2.317,6.417,6.417,0,0,0-3.078-.761,6.388,6.388,0,0,0-3.1.761,5.58,5.58,0,0,0-2.249,2.317,7.838,7.838,0,0,0-.846,3.788,8.049,8.049,0,0,0,.829,3.822,5.508,5.508,0,0,0,2.216,2.317A6.224,6.224,0,0,0,362.81,2.412Zm16.642-13.124a5.9,5.9,0,0,1,2.317-2.469,7.162,7.162,0,0,1,3.67-.879v3.18h-.812q-5.175,0-5.175,5.615V4.814h-3.078V-13.723h3.078Zm13.293-.474V-.26a2.6,2.6,0,0,0,.575,1.911,2.834,2.834,0,0,0,2,.558h2.266v2.6h-2.774a5.52,5.52,0,0,1-3.856-1.184,5.081,5.081,0,0,1-1.285-3.89V-11.186h-2.4v-2.537h2.4v-4.668h3.078v4.668h4.837v2.537Z" transform="translate(780.562 633.241)" fill="#333"/></g></svg>