<svg xmlns="http://www.w3.org/2000/svg" width="100" height="108.221" viewBox="0 0 100 108.221"><g transform="translate(-2207 -1374)"><path d="M1888.039-3895.565a63.7,63.7,0,0,1-10.178,7.552c-15.576-24.416-11.559-48.911-11.559-48.911l49.536-27.212,28.412,15.609a84.8,84.8,0,0,1,.459,14.871l-28.871-16.352-37.36,21.158,0,.19a66.028,66.028,0,0,0,2.841,18.167,63.317,63.317,0,0,0,6.717,14.928" transform="translate(341.163 5338.137)" fill="#333"/><path d="M2182.042-3546.682c-14.536-6.916-24.9-15.42-32.275-24.292a59.8,59.8,0,0,0,9.467-8.378,77.269,77.269,0,0,0,22.652,18.379l.155.085.155-.085c17.271-9.553,28.724-22.759,34.036-39.252a66.182,66.182,0,0,0,3.145-19.213l0-.19c.289-5.72.284-10.641.144-14.684l12.051,6.621s8.743,53.284-49.532,81.009" transform="translate(74.96 5028.903)" fill="#26b693"/><path d="M2475.586-3294.715a2.012,2.012,0,0,1-2.011-2.011,2.011,2.011,0,0,1,2.011-2.012,2.011,2.011,0,0,1,2.011,2.012A2.012,2.012,0,0,1,2475.586-3294.715Zm15.3-12.46a4.306,4.306,0,0,1-4.16,3.2,4.307,4.307,0,0,1-4.307-4.308,4.3,4.3,0,0,1,3.2-4.158,12.368,12.368,0,0,0-5.757-1.412,12.441,12.441,0,0,0-12.44,12.441,12.44,12.44,0,0,0,12.44,12.44,12.44,12.44,0,0,0,12.44-12.44,12.387,12.387,0,0,0-1.411-5.758" transform="translate(-222.86 4728.458)" fill="#333"/></g></svg>